# xmcd
# 
# Track frame offsets:
#     150
#     27825
#     68160
#     74602
#     92632
#     151650
#     174422
#     205750
# 
# Disc length: 3173
# 
# Revision: 5
# Processed by: cddbd v1.5.2PL0 Copyright (c) Steve Scherf et al.
# Submitted via: fre:ac v1.1beta1pre5
# 
DISCID=610c6308
DTITLE=Symphony X - Twilight in Olympus (Japan)
DYEAR=1998
DGENRE=Heavy Metal
TTITLE0=Smoke and Mirrors
TTITLE1=Church of the Machine
TTITLE2=Sonata
TTITLE3=In the Dragon's Den
TTITLE4=Through the Looking Glass (Part I, II and III)
TTITLE5=The Relic
TTITLE6=Orion - The Hunter
TTITLE7=Lady of the Snow
EXTD=
EXTT0=
EXTT1=
EXTT2=
EXTT3=
EXTT4=
EXTT5=
EXTT6=
EXTT7=
PLAYORDER=
